<svg data-v-423bf9ae="" xmlns="http://www.w3.org/2000/svg" viewBox="0 0 139.59376849642186 60" class="font"><!----><!----><!----><g data-v-423bf9ae="" id="5b04625a-71c6-4eda-b2e0-1ef4b17a3a4c" fill="#6743FF" transform="matrix(5.9447981730921144,0,0,5.9447981730921144,2.5661702812909652,-21.87685791225565)"><path d="M8.83 4.35L8.83 4.35L8.83 4.35Q8.80 4.42 8.77 4.46L8.77 4.46L8.77 4.46Q8.74 4.50 8.72 4.52L8.72 4.52L8.72 4.52Q8.69 4.55 8.67 4.55L8.67 4.55L8.67 4.55Q8.61 4.57 8.45 4.59L8.45 4.59L8.45 4.59Q8.29 4.61 8.00 4.63L8.00 4.63L8.00 4.63Q7.80 4.64 7.44 4.69L7.44 4.69L7.44 4.69Q7.09 4.73 6.63 4.80L6.63 4.80L6.63 4.80Q6.18 4.86 5.65 4.93L5.65 4.93L5.65 4.93Q5.11 5.00 4.54 5.04L4.54 5.04L4.54 5.04Q4.48 6.00 4.46 7L4.46 7L4.46 7Q4.44 8.00 4.42 9.01L4.42 9.01L4.42 9.01Q4.41 10.01 4.40 11.02L4.40 11.02L4.40 11.02Q4.39 12.02 4.37 12.98L4.37 12.98L4.37 12.98Q4.37 13.02 4.34 13.05L4.34 13.05L4.34 13.05Q4.31 13.08 4.30 13.10L4.30 13.10L4.30 13.10Q4.27 13.23 4.18 13.33L4.18 13.33L4.18 13.33Q4.09 13.43 3.99 13.43L3.99 13.43L3.99 13.43Q3.71 13.43 3.55 13.34L3.55 13.34L3.55 13.34Q3.40 13.25 3.29 13.15L3.29 13.15L3.29 13.15Q3.24 13.09 3.20 12.97L3.20 12.97L3.20 12.97Q3.15 12.85 3.12 12.70L3.12 12.70L3.12 12.70Q3.08 12.56 3.06 12.39L3.06 12.39L3.06 12.39Q3.03 12.22 3.02 12.07L3.02 12.07L3.02 12.07Q3.01 11.92 3.00 11.78L3.00 11.78L3.00 11.78Q2.99 11.63 2.99 11.48L2.99 11.48L2.99 11.48Q2.99 11.16 3.01 10.84L3.01 10.84L3.01 10.84Q3.04 10.53 3.05 10.25L3.05 10.25L3.05 10.25Q3.06 10.08 3.07 9.77L3.07 9.77L3.07 9.77Q3.09 9.45 3.12 9.05L3.12 9.05L3.12 9.05Q3.14 8.65 3.18 8.19L3.18 8.19L3.18 8.19Q3.21 7.72 3.26 7.26L3.26 7.26L3.26 7.26Q3.32 6.79 3.38 6.35L3.38 6.35L3.38 6.35Q3.44 5.91 3.51 5.55L3.51 5.55L3.51 5.55Q3.55 5.44 3.58 5.34L3.58 5.34L3.58 5.34Q3.60 5.23 3.62 5.11L3.62 5.11L3.62 5.11Q2.99 5.15 2.39 5.15L2.39 5.15L2.39 5.15Q1.62 5.15 0.92 5.06L0.92 5.06L0.92 5.06Q0.23 4.97-0.27 4.74L-0.27 4.74L-0.27 4.74Q-0.33 4.70-0.34 4.61L-0.34 4.61L-0.34 4.61Q-0.35 4.53-0.39 4.43L-0.39 4.43L-0.39 4.43Q-0.44 4.35-0.43 4.26L-0.43 4.26L-0.43 4.26Q-0.42 4.17-0.42 4.11L-0.42 4.11L-0.42 4.11Q-0.42 4.05-0.38 4.03L-0.38 4.03L-0.38 4.03Q-0.33 4.01-0.20 4.01L-0.20 4.01L-0.20 4.01Q-0.07 4.01 0.17 4.03L0.17 4.03L0.17 4.03Q0.40 4.04 0.79 4.04L0.79 4.04L0.79 4.04Q1.07 4.04 1.44 4.03L1.44 4.03L1.44 4.03Q1.81 4.01 2.28 3.98L2.28 3.98L2.28 3.98Q2.52 3.96 2.96 3.91L2.96 3.91L2.96 3.91Q3.40 3.87 3.95 3.82L3.95 3.82L3.95 3.82Q4.51 3.78 5.14 3.75L5.14 3.75L5.14 3.75Q5.77 3.71 6.38 3.71L6.38 3.71L6.38 3.71Q6.62 3.71 6.90 3.74L6.90 3.74L6.90 3.74Q7.19 3.76 7.48 3.80L7.48 3.80L7.48 3.80Q7.76 3.84 8.00 3.90L8.00 3.90L8.00 3.90Q8.24 3.95 8.40 4.01L8.40 4.01L8.40 4.01Q8.50 4.05 8.52 4.08L8.52 4.08L8.52 4.08Q8.54 4.11 8.54 4.13L8.54 4.13L8.54 4.13Q8.54 4.15 8.53 4.16L8.53 4.16L8.53 4.16Q8.52 4.18 8.57 4.19L8.57 4.19L8.57 4.19Q8.61 4.20 8.65 4.21L8.65 4.21L8.65 4.21Q8.70 4.22 8.74 4.23L8.74 4.23L8.74 4.23Q8.78 4.25 8.81 4.28L8.81 4.28L8.81 4.28Q8.84 4.31 8.83 4.35ZM15.24 4.58L15.24 4.58L15.24 4.58Q15.18 4.86 14.97 5.13L14.97 5.13L14.97 5.13Q14.77 5.40 14.51 5.59L14.51 5.59L14.51 5.59Q14.47 5.63 14.37 5.67L14.37 5.67L14.37 5.67Q14.27 5.71 14.16 5.75L14.16 5.75L14.16 5.75Q14.05 5.80 13.94 5.83L13.94 5.83L13.94 5.83Q13.83 5.87 13.77 5.87L13.77 5.87L13.77 5.87Q13.71 5.89 13.68 5.87L13.68 5.87L13.68 5.87Q13.65 5.84 13.62 5.82L13.62 5.82L13.62 5.82Q13.60 5.79 13.56 5.77L13.56 5.77L13.56 5.77Q13.52 5.74 13.45 5.74L13.45 5.74L13.45 5.74Q13.37 5.74 13.35 5.70L13.35 5.70L13.35 5.70Q13.34 5.67 13.37 5.56L13.37 5.56L13.37 5.56Q13.38 5.53 13.42 5.47L13.42 5.47L13.42 5.47Q13.45 5.41 13.53 5.31L13.53 5.31L13.53 5.31Q13.58 5.25 13.62 5.17L13.62 5.17L13.62 5.17Q13.66 5.10 13.63 5.03L13.63 5.03L13.63 5.03Q13.61 4.97 13.50 4.93L13.50 4.93L13.50 4.93Q13.39 4.89 13.16 4.89L13.16 4.89L13.16 4.89Q12.92 4.89 12.54 4.95L12.54 4.95L12.54 4.95Q12.13 5.00 11.69 5.15L11.69 5.15L11.69 5.15Q11.25 5.30 10.84 5.50L10.84 5.50L10.84 5.50Q10.42 5.70 10.08 5.93L10.08 5.93L10.08 5.93Q9.73 6.15 9.51 6.37L9.51 6.37L9.51 6.37Q9.28 6.58 9.22 6.77L9.22 6.77L9.22 6.77Q9.16 6.96 9.32 7.08L9.32 7.08L9.32 7.08Q9.47 7.18 9.76 7.25L9.76 7.25L9.76 7.25Q10.06 7.32 10.44 7.38L10.44 7.38L10.44 7.38Q10.82 7.44 11.26 7.50L11.26 7.50L11.26 7.50Q11.70 7.57 12.13 7.66L12.13 7.66L12.13 7.66Q12.56 7.75 12.96 7.88L12.96 7.88L12.96 7.88Q13.35 8.00 13.65 8.20L13.65 8.20L13.65 8.20Q13.86 8.34 14.01 8.47L14.01 8.47L14.01 8.47Q14.15 8.60 14.24 8.73L14.24 8.73L14.24 8.73Q14.33 8.85 14.38 8.97L14.38 8.97L14.38 8.97Q14.44 9.09 14.48 9.21L14.48 9.21L14.48 9.21Q14.51 9.29 14.58 9.38L14.58 9.38L14.58 9.38Q14.65 9.47 14.73 9.60L14.73 9.60L14.73 9.60Q14.81 9.73 14.88 9.90L14.88 9.90L14.88 9.90Q14.95 10.07 14.97 10.29L14.97 10.29L14.97 10.29Q15.00 10.75 14.79 11.15L14.79 11.15L14.79 11.15Q14.58 11.55 14.25 11.89L14.25 11.89L14.25 11.89Q13.92 12.24 13.51 12.51L13.51 12.51L13.51 12.51Q13.11 12.78 12.74 12.95L12.74 12.95L12.74 12.95Q12.42 13.11 12.06 13.25L12.06 13.25L12.06 13.25Q11.70 13.38 11.31 13.48L11.31 13.48L11.31 13.48Q10.93 13.58 10.54 13.64L10.54 13.64L10.54 13.64Q10.14 13.70 9.76 13.70L9.76 13.70L9.76 13.70Q9.13 13.70 8.57 13.52L8.57 13.52L8.57 13.52Q8.01 13.35 7.60 12.94L7.60 12.94L7.60 12.94Q7.40 12.73 7.31 12.51L7.31 12.51L7.31 12.51Q7.23 12.30 7.23 12.09L7.23 12.09L7.23 12.09Q7.23 11.83 7.33 11.59L7.33 11.59L7.33 11.59Q7.43 11.35 7.59 11.14L7.59 11.14L7.59 11.14Q7.76 10.93 7.96 10.76L7.96 10.76L7.96 10.76Q8.16 10.60 8.35 10.49L8.35 10.49L8.35 10.49Q8.61 10.34 8.90 10.20L8.90 10.20L8.90 10.20Q9.19 10.06 9.49 9.95L9.49 9.95L9.49 9.95Q9.78 9.84 10.08 9.76L10.08 9.76L10.08 9.76Q10.37 9.69 10.64 9.67L10.64 9.67L10.64 9.67Q10.76 9.65 10.94 9.64L10.94 9.64L10.94 9.64Q11.12 9.63 11.27 9.63L11.27 9.63L11.27 9.63Q11.38 9.63 11.44 9.68L11.44 9.68L11.44 9.68Q11.51 9.73 11.50 9.78L11.50 9.78L11.50 9.78Q11.46 9.85 11.38 9.85L11.38 9.85L11.38 9.85Q11.29 9.85 11.18 9.88L11.18 9.88L11.18 9.88Q11.05 9.91 10.92 9.93L10.92 9.93L10.92 9.93Q10.79 9.94 10.68 9.97L10.68 9.97L10.68 9.97Q9.91 10.15 9.37 10.42L9.37 10.42L9.37 10.42Q8.83 10.70 8.51 10.98L8.51 10.98L8.51 10.98Q8.20 11.26 8.08 11.51L8.08 11.51L8.08 11.51Q7.96 11.76 8.01 11.89L8.01 11.89L8.01 11.89Q8.08 12.07 8.26 12.17L8.26 12.17L8.26 12.17Q8.45 12.28 8.68 12.32L8.68 12.32L8.68 12.32Q8.91 12.37 9.15 12.37L9.15 12.37L9.15 12.37Q9.39 12.38 9.56 12.37L9.56 12.37L9.56 12.37Q9.96 12.35 10.45 12.25L10.45 12.25L10.45 12.25Q10.94 12.15 11.44 12.00L11.44 12.00L11.44 12.00Q11.94 11.84 12.42 11.62L12.42 11.62L12.42 11.62Q12.90 11.41 13.27 11.15L13.27 11.15L13.27 11.15Q13.64 10.90 13.86 10.60L13.86 10.60L13.86 10.60Q14.09 10.30 14.09 9.97L14.09 9.97L14.09 9.97Q14.09 9.86 14.06 9.76L14.06 9.76L14.06 9.76Q14.03 9.65 13.97 9.54L13.97 9.54L13.97 9.54Q13.87 9.34 13.58 9.20L13.58 9.20L13.58 9.20Q13.30 9.06 12.90 8.96L12.90 8.96L12.90 8.96Q12.50 8.86 12.03 8.78L12.03 8.78L12.03 8.78Q11.56 8.70 11.10 8.62L11.10 8.62L11.10 8.62Q10.65 8.54 10.24 8.44L10.24 8.44L10.24 8.44Q9.83 8.33 9.55 8.18L9.55 8.18L9.55 8.18Q9.24 8.01 9.09 7.84L9.09 7.84L9.09 7.84Q8.94 7.68 8.92 7.42L8.92 7.42L8.92 7.42Q8.91 7.40 8.88 7.33L8.88 7.33L8.88 7.33Q8.85 7.26 8.80 7.18L8.80 7.18L8.80 7.18Q8.76 7.11 8.72 7.04L8.72 7.04L8.72 7.04Q8.67 6.97 8.65 6.93L8.65 6.93L8.65 6.93Q8.54 6.73 8.54 6.50L8.54 6.50L8.54 6.50Q8.54 6.24 8.66 5.97L8.66 5.97L8.66 5.97Q8.78 5.69 8.96 5.50L8.96 5.50L8.96 5.50Q9.29 5.12 9.83 4.80L9.83 4.80L9.83 4.80Q10.36 4.48 11.00 4.24L11.00 4.24L11.00 4.24Q11.63 4.00 12.31 3.85L12.31 3.85L12.31 3.85Q12.98 3.71 13.58 3.68L13.58 3.68L13.58 3.68Q13.83 3.68 14.14 3.72L14.14 3.72L14.14 3.72Q14.44 3.76 14.71 3.87L14.71 3.87L14.71 3.87Q14.97 3.97 15.13 4.15L15.13 4.15L15.13 4.15Q15.29 4.32 15.24 4.58ZM23.05 13.30L23.05 13.30L23.05 13.30Q23.05 13.36 22.98 13.36L22.98 13.36L22.98 13.36Q22.91 13.36 22.84 13.36L22.84 13.36L22.84 13.36Q22.80 13.37 22.77 13.38L22.77 13.38L22.77 13.38Q22.74 13.39 22.70 13.40L22.70 13.40L22.70 13.40Q22.66 13.41 22.63 13.45L22.63 13.45L22.63 13.45Q22.64 13.51 22.64 13.55L22.64 13.55L22.64 13.55Q22.63 13.59 22.63 13.61L22.63 13.61L22.63 13.64L22.63 13.64Q22.61 13.67 22.54 13.68L22.54 13.68L22.54 13.68Q22.48 13.70 22.42 13.70L22.42 13.70L22.42 13.70Q22.40 13.70 22.37 13.69L22.37 13.69L22.37 13.69Q22.33 13.68 22.28 13.62L22.28 13.62L22.28 13.62Q22.16 13.59 22.00 13.56L22.00 13.56L22.00 13.56Q21.92 13.54 21.83 13.51L21.83 13.51L21.83 13.51Q21.75 13.49 21.70 13.41L21.70 13.41L21.70 13.41Q21.64 13.32 21.60 13.20L21.60 13.20L21.60 13.20Q21.55 13.08 21.52 12.95L21.52 12.95L21.52 12.95Q21.48 12.82 21.45 12.73L21.45 12.73L20.78 10.62L20.78 10.62Q20.63 10.62 20.40 10.62L20.40 10.62L20.40 10.62Q20.17 10.62 19.91 10.63L19.91 10.63L19.91 10.63Q19.65 10.63 19.39 10.64L19.39 10.64L19.39 10.64Q19.12 10.65 18.90 10.66L18.90 10.66L17.53 10.73L16.73 12.82L16.73 12.82Q16.71 12.85 16.68 12.95L16.68 12.95L16.68 12.95Q16.64 13.06 16.60 13.17L16.60 13.17L16.60 13.17Q16.56 13.28 16.52 13.38L16.52 13.38L16.52 13.38Q16.49 13.48 16.48 13.50L16.48 13.50L16.48 13.50Q16.47 13.56 16.40 13.57L16.40 13.57L16.40 13.57Q16.33 13.58 16.28 13.60L16.28 13.60L16.28 13.60Q16.24 13.61 16.21 13.67L16.21 13.67L16.21 13.67Q16.19 13.73 16.13 13.75L16.13 13.75L16.13 13.75Q16.08 13.79 16.00 13.76L16.00 13.76L16.00 13.76Q15.91 13.73 15.85 13.67L15.85 13.67L15.85 13.67Q15.80 13.60 15.81 13.50L15.81 13.50L15.81 13.50Q15.83 13.39 15.83 13.28L15.83 13.28L15.83 13.28Q15.83 13.16 15.82 13.06L15.82 13.06L15.82 13.06Q15.82 12.95 15.85 12.86L15.85 12.86L15.85 12.86Q15.87 12.82 15.94 12.60L15.94 12.60L15.94 12.60Q16.01 12.39 16.12 12.08L16.12 12.08L16.12 12.08Q16.23 11.78 16.36 11.42L16.36 11.42L16.36 11.42Q16.49 11.06 16.63 10.73L16.63 10.73L16.63 10.73Q16.50 10.73 16.45 10.66L16.45 10.66L16.45 10.66Q16.42 10.60 16.37 10.59L16.37 10.59L16.37 10.59Q16.32 10.58 16.27 10.56L16.27 10.56L16.27 10.56Q16.21 10.55 16.19 10.50L16.19 10.50L16.19 10.50Q16.17 10.45 16.19 10.42L16.19 10.42L16.19 10.42Q16.20 10.38 16.17 10.35L16.17 10.35L16.17 10.35Q16.13 10.32 16.13 10.23L16.13 10.23L16.13 10.23Q16.13 10.19 16.20 10.15L16.20 10.15L16.20 10.15Q16.26 10.11 16.36 10.08L16.36 10.08L16.36 10.08Q16.45 10.06 16.57 10.04L16.57 10.04L16.57 10.04Q16.69 10.01 16.80 10.00L16.80 10.00L16.80 10.00Q16.82 10.00 16.85 10.00L16.85 10.00L16.85 10.00Q16.88 10.00 16.92 9.99L16.92 9.99L16.92 9.99Q17.07 9.63 17.26 9.20L17.26 9.20L17.26 9.20Q17.45 8.78 17.65 8.35L17.65 8.35L17.65 8.35Q17.86 7.91 18.06 7.47L18.06 7.47L18.06 7.47Q18.27 7.03 18.45 6.65L18.45 6.65L18.45 6.65Q18.63 6.26 18.79 5.94L18.79 5.94L18.79 5.94Q18.94 5.62 19.04 5.41L19.04 5.41L19.04 5.41Q18.96 5.15 18.90 4.94L18.90 4.94L18.90 4.94Q18.83 4.73 18.79 4.57L18.79 4.57L18.79 4.57Q18.74 4.42 18.71 4.32L18.71 4.32L18.71 4.32Q18.68 4.23 18.68 4.22L18.68 4.22L18.68 4.22Q18.68 4.20 18.68 4.19L18.68 4.19L18.68 4.19Q18.70 4.16 18.75 4.15L18.75 4.15L18.75 4.15Q18.70 4.05 18.70 4.00L18.70 4.00L18.70 4.00Q18.70 3.97 18.71 3.96L18.71 3.96L18.71 3.96Q18.72 3.95 18.78 3.94L18.78 3.94L18.78 3.94Q18.83 3.92 18.89 3.91L18.89 3.91L18.89 3.91Q18.96 3.90 19.01 3.90L19.01 3.90L19.01 3.90Q19.07 3.90 19.09 3.90L19.09 3.90L19.09 3.90Q19.09 3.90 19.12 3.90L19.12 3.90L19.12 3.90Q19.16 3.92 19.24 3.96L19.24 3.96L19.24 3.96Q19.24 3.93 19.25 3.92L19.25 3.92L19.25 3.92Q19.26 3.90 19.28 3.89L19.28 3.89L19.30 3.87L19.30 3.87Q19.34 3.85 19.39 3.86L19.39 3.86L19.39 3.86Q19.43 3.87 19.48 3.87L19.48 3.87L19.48 3.87Q19.52 3.87 19.53 3.83L19.53 3.83L19.53 3.83Q19.55 3.80 19.62 3.80L19.62 3.80L19.62 3.80Q19.71 3.80 19.77 3.99L19.77 3.99L19.77 3.99Q19.78 4.03 19.87 4.25L19.87 4.25L19.87 4.25Q19.95 4.47 20.09 4.83L20.09 4.83L20.09 4.83Q20.23 5.19 20.41 5.66L20.41 5.66L20.41 5.66Q20.59 6.13 20.79 6.66L20.79 6.66L20.79 6.66Q20.99 7.19 21.19 7.76L21.19 7.76L21.19 7.76Q21.39 8.32 21.57 8.87L21.57 8.87L21.57 8.87Q21.96 9.98 22.22 10.75L22.22 10.75L22.22 10.75Q22.48 11.51 22.64 12.00L22.64 12.00L22.64 12.00Q22.80 12.48 22.88 12.72L22.88 12.72L22.88 12.72Q22.96 12.96 22.98 13.01L22.98 13.01L22.98 13.01Q23.01 13.12 23.03 13.18L23.03 13.18L23.03 13.18Q23.05 13.25 23.05 13.30ZM20.51 9.82L20.10 8.63L20.10 8.63Q19.93 8.12 19.72 7.49L19.72 7.49L19.72 7.49Q19.51 6.86 19.31 6.25L19.31 6.25L19.31 6.25Q19.20 6.55 19.03 6.97L19.03 6.97L19.03 6.97Q18.87 7.40 18.69 7.85L18.69 7.85L18.69 7.85Q18.50 8.30 18.33 8.73L18.33 8.73L18.33 8.73Q18.16 9.16 18.03 9.47L18.03 9.47L17.84 9.92L19.07 9.84L19.07 9.84Q19.23 9.84 19.45 9.84L19.45 9.84L19.45 9.84Q19.82 9.83 20.51 9.82L20.51 9.82Z"></path></g><!----><!----></svg>